<svg xmlns="http://www.w3.org/2000/svg" xmlns:ns0="http://www.iki.fi/pav/software/textext/" xmlns:svg="http://www.w3.org/2000/svg" xmlns:xlink="http://www.w3.org/1999/xlink" id="svg6679" width="606.474" height="203.664" version="1.1" viewBox="0 0 568.57 190.935"><defs id="defs6681"><marker id="marker22296" orient="auto" refX="0" refY="0" style="overflow:visible"><path id="path22298" d="M 8.7185878,4.0337352 -2.2072895,0.01601326 8.7185884,-4.0017078 c -1.7454984,2.3720609 -1.7354408,5.6174519 -6e-7,8.035443 z" transform="scale(-0.6,-0.6)" style="fill:#78b7cb;fill-opacity:1;fill-rule:evenodd;stroke:#78b7cb;stroke-width:.625;stroke-linejoin:round;stroke-opacity:1"/></marker><marker id="marker21559" orient="auto" refX="0" refY="0" style="overflow:visible"><path id="path21561" d="M 8.7185878,4.0337352 -2.2072895,0.01601326 8.7185884,-4.0017078 c -1.7454984,2.3720609 -1.7354408,5.6174519 -6e-7,8.035443 z" transform="scale(-0.6,-0.6)" style="fill:#78b7cb;fill-opacity:1;fill-rule:evenodd;stroke:#78b7cb;stroke-width:.625;stroke-linejoin:round;stroke-opacity:1"/></marker><marker id="marker21477" orient="auto" refX="0" refY="0" style="overflow:visible"><path id="path21479" d="M 8.7185878,4.0337352 -2.2072895,0.01601326 8.7185884,-4.0017078 c -1.7454984,2.3720609 -1.7354408,5.6174519 -6e-7,8.035443 z" transform="scale(0.6,0.6)" style="fill:#79cb8c;fill-opacity:1;fill-rule:evenodd;stroke:#79cb8c;stroke-width:.625;stroke-linejoin:round;stroke-opacity:1"/></marker><marker style="overflow:visible" id="marker13632" orient="auto" refX="0" refY="0"><path style="fill:#79cb8c;fill-opacity:1;fill-rule:evenodd;stroke:#79cb8c;stroke-width:.625;stroke-linejoin:round;stroke-opacity:1" id="path13634" d="M 8.7185878,4.0337352 -2.2072895,0.01601326 8.7185884,-4.0017078 c -1.7454984,2.3720609 -1.7354408,5.6174519 -6e-7,8.035443 z" transform="scale(0.6,0.6)"/></marker><marker id="marker12915" orient="auto" refX="0" refY="0" style="overflow:visible"><path id="path12917" d="M 8.7185878,4.0337352 -2.2072895,0.01601326 8.7185884,-4.0017078 c -1.7454984,2.3720609 -1.7354408,5.6174519 -6e-7,8.035443 z" transform="scale(-0.6,-0.6)" style="fill:#d2504b;fill-opacity:1;fill-rule:evenodd;stroke:#d2504b;stroke-width:.625;stroke-linejoin:round;stroke-opacity:1"/></marker><marker id="marker12683" orient="auto" refX="0" refY="0" style="overflow:visible"><path id="path12685" d="M 8.7185878,4.0337352 -2.2072895,0.01601326 8.7185884,-4.0017078 c -1.7454984,2.3720609 -1.7354408,5.6174519 -6e-7,8.035443 z" transform="scale(-0.6,-0.6)" style="fill:#78b7cb;fill-opacity:1;fill-rule:evenodd;stroke:#78b7cb;stroke-width:.625;stroke-linejoin:round;stroke-opacity:1"/></marker><marker id="marker12605" orient="auto" refX="0" refY="0" style="overflow:visible"><path id="path12607" d="M 8.7185878,4.0337352 -2.2072895,0.01601326 8.7185884,-4.0017078 c -1.7454984,2.3720609 -1.7354408,5.6174519 -6e-7,8.035443 z" transform="scale(-0.6,-0.6)" style="fill:#d2504b;fill-opacity:1;fill-rule:evenodd;stroke:#d2504b;stroke-width:.625;stroke-linejoin:round;stroke-opacity:1"/></marker><marker id="marker12541" orient="auto" refX="0" refY="0" style="overflow:visible"><path id="path12543" d="M 8.7185878,4.0337352 -2.2072895,0.01601326 8.7185884,-4.0017078 c -1.7454984,2.3720609 -1.7354408,5.6174519 -6e-7,8.035443 z" transform="scale(-0.6,-0.6)" style="fill:#78b7cb;fill-opacity:1;fill-rule:evenodd;stroke:#78b7cb;stroke-width:.625;stroke-linejoin:round;stroke-opacity:1"/></marker><marker id="marker9720" orient="auto" refX="0" refY="0" style="overflow:visible"><path id="path9722" d="M 8.7185878,4.0337352 -2.2072895,0.01601326 8.7185884,-4.0017078 c -1.7454984,2.3720609 -1.7354408,5.6174519 -6e-7,8.035443 z" transform="scale(0.6,0.6)" style="fill:#79cb8c;fill-opacity:1;fill-rule:evenodd;stroke:#79cb8c;stroke-width:.625;stroke-linejoin:round;stroke-opacity:1"/></marker><marker style="overflow:visible" id="marker9596" orient="auto" refX="0" refY="0"><path style="fill:#d2504b;fill-opacity:1;fill-rule:evenodd;stroke:#d2504b;stroke-width:.625;stroke-linejoin:round;stroke-opacity:1" id="path9598" d="M 8.7185878,4.0337352 -2.2072895,0.01601326 8.7185884,-4.0017078 c -1.7454984,2.3720609 -1.7354408,5.6174519 -6e-7,8.035443 z" transform="scale(-0.6,-0.6)"/></marker><marker id="marker7148" orient="auto" refX="0" refY="0" style="overflow:visible"><path id="path7150" d="M 8.7185878,4.0337352 -2.2072895,0.01601326 8.7185884,-4.0017078 c -1.7454984,2.3720609 -1.7354408,5.6174519 -6e-7,8.035443 z" transform="matrix(-0.3,0,0,-0.3,0.69,0)" style="fill:#e9dfd6;fill-opacity:1;fill-rule:evenodd;stroke:#e9dfd6;stroke-width:.625;stroke-linejoin:round;stroke-opacity:1"/></marker><marker style="overflow:visible" id="Arrow2Lend" orient="auto" refX="0" refY="0"><path style="fill:#000;fill-opacity:1;fill-rule:evenodd;stroke:#000;stroke-width:.625;stroke-linejoin:round;stroke-opacity:1" id="path4613" d="M 8.7185878,4.0337352 -2.2072895,0.01601326 8.7185884,-4.0017078 c -1.7454984,2.3720609 -1.7354408,5.6174519 -6e-7,8.035443 z" transform="matrix(-1.1,0,0,-1.1,-1.1,0)"/></marker><marker style="overflow:visible" id="Arrow2Mend" orient="auto" refX="0" refY="0"><path style="fill:#000;fill-opacity:1;fill-rule:evenodd;stroke:#000;stroke-width:.625;stroke-linejoin:round;stroke-opacity:1" id="path4619" d="M 8.7185878,4.0337352 -2.2072895,0.01601326 8.7185884,-4.0017078 c -1.7454984,2.3720609 -1.7354408,5.6174519 -6e-7,8.035443 z" transform="scale(-0.6,-0.6)"/></marker><marker style="overflow:visible" id="Arrow1Mend" orient="auto" refX="0" refY="0"><path style="fill:#000;fill-opacity:1;fill-rule:evenodd;stroke:#000;stroke-width:1pt;stroke-opacity:1" id="path4601" d="M 0,0 5,-5 -12.5,0 5,5 0,0 Z" transform="matrix(-0.4,0,0,-0.4,-4,0)"/></marker><defs id="defs14662"><g id="g14664"><symbol id="textext-14b90720-0" overflow="visible" style="overflow:visible"><path style="stroke:none" id="path14667"/></symbol><symbol id="textext-14b90720-1" overflow="visible" style="overflow:visible"><path style="stroke:none" id="path14670" d="M 3.453125,-2.453125 4.609375,-3.75 C 4.75,-3.890625 4.8125,-3.953125 5.625,-3.953125 l 0,-0.46875 c -0.34375,0.015625 -0.859375,0.03125 -0.90625,0.03125 -0.25,0 -0.75,-0.03125 -1.03125,-0.03125 l 0,0.46875 c 0.140625,0 0.265625,0.015625 0.375,0.078125 -0.03125,0.0625 -0.03125,0.09375 -0.078125,0.125 l -0.828125,0.9375 -0.984375,-1.140625 0.40625,0 0,-0.46875 c -0.265625,0 -0.890625,0.03125 -1.21875,0.03125 -0.3125,0 -0.765625,-0.03125 -1.09375,-0.03125 l 0,0.46875 0.71875,0 1.546875,1.828125 -1.3125,1.46875 c -0.15625,0.1875 -0.515625,0.1875 -1,0.1875 l 0,0.46875 c 0.34375,-0.015625 0.875,-0.03125 0.921875,-0.03125 0.25,0 0.828125,0.015625 1.015625,0.03125 l 0,-0.46875 c -0.171875,0 -0.359375,-0.046875 -0.359375,-0.109375 0,-0.015625 0,-0.015625 0.0625,-0.09375 l 0.96875,-1.09375 1.09375,1.296875 -0.390625,0 0,0.46875 c 0.265625,-0.015625 0.875,-0.03125 1.203125,-0.03125 0.3125,0 0.765625,0.015625 1.09375,0.03125 l 0,-0.46875 -0.703125,0 z m 0,0"/></symbol></g></defs><defs id="defs15142"><g id="g15144"><symbol style="overflow:visible" id="textext-161b0591-0" overflow="visible"><path style="stroke:none" id="path15147"/></symbol><symbol style="overflow:visible" id="textext-161b0591-1" overflow="visible"><path style="stroke:none" id="path15150" d="m 5.046875,-3.75 c 0.0625,-0.140625 0.09375,-0.203125 0.734375,-0.203125 l 0,-0.46875 C 5.546875,-4.40625 5.25,-4.390625 5,-4.390625 c -0.25,0 -0.703125,-0.03125 -0.90625,-0.03125 l 0,0.46875 c 0.015625,0 0.46875,0 0.46875,0.109375 0,0.015625 -0.046875,0.109375 -0.0625,0.125 l -1.140625,2.453125 -1.265625,-2.6875 0.53125,0 0,-0.46875 c -0.328125,0.015625 -1.21875,0.03125 -1.234375,0.03125 -0.28125,0 -0.71875,-0.03125 -1.125,-0.03125 l 0,0.46875 0.625,0 L 2.765625,0 2.53125,0.484375 C 2.3125,0.953125 2,1.640625 1.28125,1.640625 1.140625,1.640625 1.125,1.625 1.046875,1.59375 1.140625,1.5625 1.359375,1.421875 1.359375,1.0625 1.359375,0.734375 1.125,0.5 0.78125,0.5 0.515625,0.5 0.21875,0.6875 0.21875,1.078125 0.21875,1.578125 0.6875,2 1.28125,2 2.046875,2 2.625,1.375 2.90625,0.8125 Z m 0,0"/></symbol></g></defs><defs id="defs14935"><g id="g14937"><symbol style="overflow:visible" id="textext-bb0701bc-0" overflow="visible"><path id="path14940" style="stroke:none"/></symbol><symbol style="overflow:visible" id="textext-bb0701bc-1" overflow="visible"><path id="path14943" d="M 4.46875,-4 C 4.5625,-4.109375 4.578125,-4.125 4.578125,-4.21875 4.578125,-4.421875 4.4375,-4.421875 4.25,-4.421875 l -3.65625,0 -0.109375,1.734375 0.46875,0 C 1,-3.703125 1.3125,-4.0625 2.34375,-4.0625 l 0.84375,0 -2.78125,3.625 C 0.3125,-0.328125 0.3125,-0.3125 0.3125,-0.21875 0.3125,0 0.453125,0 0.640625,0 l 3.78125,0 0.1875,-2.015625 -0.46875,0 C 4.046875,-1 3.890625,-0.40625 2.578125,-0.40625 l -0.859375,0 z m 0,0" style="stroke:none"/></symbol></g></defs></defs><metadata id="metadata6684"/><g id="layer1" transform="translate(-22.105777,-221.42688)"><g id="g12529" transform="matrix(2.0491053,0,0,2.0491053,-146.89953,-397.77809)" style="stroke:gray"><path style="fill:none;fill-rule:evenodd;stroke:gray;stroke-width:.58562142;stroke-linecap:round;stroke-linejoin:round;stroke-miterlimit:4;stroke-dasharray:.58562144,2.34248577;stroke-dashoffset:0;stroke-opacity:1" id="path7241" d="m 189.55235,354.23158 -65.3197,-10.07247 0,-40.28987"/><path id="path7251" d="M 93.566604,373.52028 124.3925,344.24573" style="fill:none;fill-rule:evenodd;stroke:gray;stroke-width:.58562142;stroke-linecap:round;stroke-linejoin:round;stroke-miterlimit:4;stroke-dasharray:.58562144,2.34248577;stroke-dashoffset:0;stroke-opacity:1"/></g><path style="fill:none;fill-rule:evenodd;stroke:#000;stroke-width:2.04910517px;stroke-linecap:round;stroke-linejoin:round;stroke-opacity:1" id="path7239" d="m 44.691074,326.64506 71.718686,10.24552 0,40.98211 -71.718686,-10.24552 z"/><path style="fill:none;fill-rule:evenodd;stroke:#000;stroke-width:2.04910517px;stroke-linecap:round;stroke-linejoin:round;stroke-opacity:1" id="path7245" d="M 44.763606,326.42423 107.6057,224.99837"/><path style="fill:none;fill-rule:evenodd;stroke:#000;stroke-width:2.04910517px;stroke-linecap:round;stroke-linejoin:round;stroke-opacity:1" id="path7247" d="M 116.20581,336.74695 241.32285,245.73286"/><path style="fill:none;fill-rule:evenodd;stroke:#000;stroke-width:2.04910517px;stroke-linecap:round;stroke-linejoin:round;stroke-opacity:1" id="path7249" d="M 116.54699,377.82695 241.91746,328.10872"/><path style="fill:none;fill-rule:evenodd;stroke:#000;stroke-width:2.04910517;stroke-linecap:round;stroke-linejoin:round;stroke-miterlimit:4;stroke-dasharray:none;stroke-opacity:1" id="path7255" d="m 107.66625,224.88199 133.84694,20.6395 0.32018,82.55823"/><g id="g8474" transform="matrix(1.7262876,0,0,1.7262876,40.393179,-233.20825)" style="stroke:#000;stroke-opacity:1"><path id="rect8441" d="m 283.41174,330.4696 -13.73604,0 -28.2296,0 0,-41.96564" style="opacity:1;fill:#b3b3b3;fill-opacity:0;fill-rule:nonzero;stroke:gray;stroke-width:.69513333;stroke-linecap:round;stroke-linejoin:round;stroke-miterlimit:4;stroke-dasharray:.69513333,2.08539999;stroke-dashoffset:1.25124002;stroke-opacity:1"/><path id="path8448" d="m 214.9389,353.00583 26.4607,-22.80702" style="opacity:.98999999;fill:#b3b3b3;fill-rule:evenodd;stroke:gray;stroke-width:.69513333;stroke-linecap:round;stroke-linejoin:round;stroke-miterlimit:4;stroke-dasharray:.69513333,2.08539999;stroke-dashoffset:0;stroke-opacity:1"/></g><path style="fill:none;fill-rule:evenodd;stroke:#000;stroke-width:2.75945163px;stroke-linecap:round;stroke-linejoin:round;stroke-opacity:1" id="path8444" d="m 411.43955,304.2385 45.67878,-39.37148"/><path id="path8446" d="m 483.87514,304.2385 45.67879,-39.37148" style="fill:none;fill-rule:evenodd;stroke:#000;stroke-width:2.75945163px;stroke-linecap:round;stroke-linejoin:round;stroke-opacity:1"/><path id="path8450" d="m 483.80298,376.76121 45.67875,-39.37146" style="fill:none;fill-rule:evenodd;stroke:#000;stroke-width:2.75945163px;stroke-linecap:round;stroke-linejoin:round;stroke-opacity:1"/><path id="path8464" d="m 457.19861,264.83257 72.44475,0 0,72.44476" style="opacity:1;fill:#000;fill-opacity:0;fill-rule:nonzero;stroke:#000;stroke-width:2.75945163;stroke-linecap:round;stroke-linejoin:round;stroke-miterlimit:4;stroke-dasharray:none;stroke-dashoffset:2;stroke-opacity:1"/><g id="g22344"><g id="textext-14b90720-2" transform="matrix(2.0491053,0,0,2.0491053,-397.94408,128.97893)" style="fill:#d2504b;fill-opacity:1"><g id="g14673" style="fill:#d2504b;fill-opacity:1"><use id="use14675" width="100%" height="100%" x="223.432" y="134.765" xlink:href="#textext-14b90720-1" style="fill:#d2504b;fill-opacity:1"/></g></g><g id="textext-bb0701bc-2" transform="matrix(2.0491053,0,0,2.0491053,-433.47605,136.21452)" style="fill:#78b7cb;fill-opacity:1"><g style="fill:#78b7cb;fill-opacity:1" id="g14946"><use id="use14948" width="100%" height="100%" x="223.432" y="134.765" xlink:href="#textext-bb0701bc-1" style="fill:#78b7cb;fill-opacity:1"/></g></g><g id="textext-161b0591-2" transform="matrix(2.0491053,0,0,2.0491053,-433.9595,91.903767)" style="fill:#79cb8c;fill-opacity:1"><g id="g15153" style="fill:#79cb8c;fill-opacity:1"><use id="use15155" width="100%" height="100%" x="223.432" y="134.765" xlink:href="#textext-161b0591-1" style="fill:#79cb8c;fill-opacity:1"/></g></g><path style="fill:#d2504b;fill-opacity:1;fill-rule:evenodd;stroke:#d2504b;stroke-width:1.2446717;stroke-linecap:round;stroke-linejoin:round;stroke-miterlimit:4;stroke-dasharray:none;stroke-opacity:1;marker-end:url(#marker9596)" id="path9560" d="m 39.64044,387.74947 20.429667,4.71491"/><path id="path9462" d="m 38.622821,364.04633 0.628659,23.25862" style="fill:none;fill-rule:evenodd;stroke:#79cb8c;stroke-width:1.2446717;stroke-linecap:round;stroke-linejoin:round;stroke-miterlimit:4;stroke-dasharray:none;stroke-opacity:1;marker-start:url(#marker13632)"/><path id="path9464" d="M 39.04311,387.72647 23.587956,400.84883" style="fill:none;fill-rule:evenodd;stroke:#78b7cb;stroke-width:1.2446717;stroke-linecap:round;stroke-linejoin:round;stroke-miterlimit:4;stroke-dasharray:none;stroke-opacity:1;marker-end:url(#marker22296)"/></g><g style="stroke-width:1;stroke-miterlimit:4;stroke-dasharray:none" id="g12675" transform="matrix(1.2446717,0,0,1.2446717,20.521212,-67.848138)"><path style="fill:none;fill-rule:evenodd;stroke:#78b7cb;stroke-width:1;stroke-linecap:round;stroke-linejoin:round;stroke-miterlimit:4;stroke-dasharray:none;stroke-opacity:1;marker-end:url(#marker12683)" id="path12677" d="M 357.28417,318.84971 375.1308,300.41506"/><path style="fill:none;fill-rule:evenodd;stroke:#79cb8c;stroke-width:1;stroke-linecap:round;stroke-linejoin:round;stroke-miterlimit:4;stroke-dasharray:none;stroke-opacity:1;marker-start:url(#marker9720)" id="path12679" d="m 356.78571,293.79077 0,25"/><path id="path12681" d="m 357.09821,319.14791 25,0" style="fill:#d2504b;fill-opacity:1;fill-rule:evenodd;stroke:#d2504b;stroke-width:1;stroke-linecap:round;stroke-linejoin:round;stroke-miterlimit:4;stroke-dasharray:none;stroke-opacity:1;marker-end:url(#marker12915)"/></g><path id="rect8439" d="m 411.05763,304.27749 72.44477,0 0,72.44475 -72.44477,0 z" style="opacity:1;fill:#000;fill-opacity:0;fill-rule:nonzero;stroke:#000;stroke-width:2.75945163;stroke-linecap:round;stroke-linejoin:round;stroke-miterlimit:4;stroke-dasharray:none;stroke-dashoffset:2;stroke-opacity:1"/><g id="g15746" transform="matrix(2.0491053,0,0,2.0491053,41.320843,56.277306)" style="fill:#d2504b;fill-opacity:1"><g id="g15748" style="fill:#d2504b;fill-opacity:1"><use id="use15750" width="100%" height="100%" x="223.432" y="134.765" xlink:href="#textext-14b90720-1" style="fill:#d2504b;fill-opacity:1"/></g></g><g id="g15752" transform="matrix(2.0491053,0,0,2.0491053,33.379127,31.832365)" style="fill:#78b7cb;fill-opacity:1"><g style="fill:#78b7cb;fill-opacity:1" id="g15754"><use id="use15756" width="100%" height="100%" x="223.432" y="134.765" xlink:href="#textext-bb0701bc-1" style="fill:#78b7cb;fill-opacity:1"/></g></g><g id="g15758" transform="matrix(2.0491053,0,0,2.0491053,5.5592665,12.855132)" style="fill:#79cb8c;fill-opacity:1"><g id="g15760" style="fill:#79cb8c;fill-opacity:1"><use id="use15762" width="100%" height="100%" x="223.432" y="134.765" xlink:href="#textext-161b0591-1" style="fill:#79cb8c;fill-opacity:1"/></g></g><g id="g16366" transform="matrix(1.402191,0,0,1.402191,31.093936,204.68443)" ns0:preamble="/home/tortue/Dropbox/projects/textex_preamble.tex" ns0:text="$\\mathbf{(-1, -1, -1)}$"><defs id="defs16368"><g id="g16370"><symbol style="overflow:visible" id="textext-80488f49-0" overflow="visible"><path style="stroke:none" id="path16373"/></symbol><symbol style="overflow:visible" id="textext-80488f49-1" overflow="visible"><path style="stroke:none" id="path16376" d="m 3.296875,2.390625 c 0,-0.03125 0,-0.046875 -0.171875,-0.21875 C 1.890625,0.921875 1.5625,-0.96875 1.5625,-2.5 c 0,-1.734375 0.375,-3.46875 1.609375,-4.703125 0.125,-0.125 0.125,-0.140625 0.125,-0.171875 0,-0.078125 -0.03125,-0.109375 -0.09375,-0.109375 -0.109375,0 -1,0.6875 -1.59375,1.953125 -0.5,1.09375 -0.625,2.203125 -0.625,3.03125 0,0.78125 0.109375,1.984375 0.65625,3.125 C 2.25,1.84375 3.09375,2.5 3.203125,2.5 c 0.0625,0 0.09375,-0.03125 0.09375,-0.109375 z m 0,0"/></symbol><symbol style="overflow:visible" id="textext-80488f49-2" overflow="visible"><path style="stroke:none" id="path16379" d="m 2.875,-2.5 c 0,-0.765625 -0.109375,-1.96875 -0.65625,-3.109375 -0.59375,-1.21875 -1.453125,-1.875 -1.546875,-1.875 -0.0625,0 -0.109375,0.046875 -0.109375,0.109375 0,0.03125 0,0.046875 0.1875,0.234375 0.984375,0.984375 1.546875,2.5625 1.546875,4.640625 0,1.71875 -0.359375,3.46875 -1.59375,4.71875 C 0.5625,2.34375 0.5625,2.359375 0.5625,2.390625 0.5625,2.453125 0.609375,2.5 0.671875,2.5 0.765625,2.5 1.671875,1.8125 2.25,0.546875 2.765625,-0.546875 2.875,-1.65625 2.875,-2.5 Z m 0,0"/></symbol><symbol style="overflow:visible" id="textext-80488f49-3" overflow="visible"><path style="stroke:none" id="path16382"/></symbol><symbol style="overflow:visible" id="textext-80488f49-4" overflow="visible"><path style="stroke:none" id="path16385" d="m 6.5625,-2.296875 c 0.171875,0 0.359375,0 0.359375,-0.203125 0,-0.1875 -0.1875,-0.1875 -0.359375,-0.1875 l -5.390625,0 c -0.171875,0 -0.34375,0 -0.34375,0.1875 0,0.203125 0.171875,0.203125 0.34375,0.203125 z m 0,0"/></symbol><symbol style="overflow:visible" id="textext-80488f49-5" overflow="visible"><path style="stroke:none" id="path16388"/></symbol><symbol style="overflow:visible" id="textext-80488f49-6" overflow="visible"><path style="stroke:none" id="path16391" d="m 3.53125,-6.203125 c 0,-0.234375 0,-0.328125 -0.265625,-0.328125 -0.109375,0 -0.125,0 -0.21875,0.078125 -0.765625,0.5625 -1.796875,0.5625 -2,0.5625 l -0.203125,0 0,0.46875 0.203125,0 C 1.203125,-5.421875 1.75,-5.4375 2.34375,-5.625 l 0,5.15625 -1.390625,0 0,0.46875 c 0.4375,-0.03125 1.5,-0.03125 1.984375,-0.03125 0.484375,0 1.546875,0 1.984375,0.03125 l 0,-0.46875 -1.390625,0 z m 0,0"/></symbol><symbol style="overflow:visible" id="textext-80488f49-7" overflow="visible"><path style="stroke:none" id="path16394"/></symbol><symbol style="overflow:visible" id="textext-80488f49-8" overflow="visible"><path style="stroke:none" id="path16397" d="m 2.03125,-0.015625 c 0,-0.65625 -0.25,-1.046875 -0.640625,-1.046875 -0.328125,0 -0.53125,0.25 -0.53125,0.53125 C 0.859375,-0.265625 1.0625,0 1.390625,0 1.5,0 1.640625,-0.046875 1.734375,-0.125 1.765625,-0.15625 1.78125,-0.15625 1.78125,-0.15625 c 0.015625,0 0.015625,0 0.015625,0.140625 0,0.75 -0.34375,1.34375 -0.671875,1.671875 -0.109375,0.109375 -0.109375,0.125 -0.109375,0.15625 0,0.078125 0.046875,0.109375 0.09375,0.109375 0.109375,0 0.921875,-0.765625 0.921875,-1.9375 z m 0,0"/></symbol></g></defs><g id="textext-80488f49-9"><g style="fill:#000;fill-opacity:1" id="g16400"><use id="use16402" width="100%" height="100%" x="223.432" y="134.765" xlink:href="#textext-80488f49-1"/></g><g style="fill:#000;fill-opacity:1" id="g16404"><use id="use16406" width="100%" height="100%" x="227.306" y="134.765" xlink:href="#textext-80488f49-4"/></g><g style="fill:#000;fill-opacity:1" id="g16408"><use id="use16410" width="100%" height="100%" x="235.055" y="134.765" xlink:href="#textext-80488f49-6"/></g><g style="fill:#000;fill-opacity:1" id="g16412"><use id="use16414" width="100%" height="100%" x="240.784" y="134.765" xlink:href="#textext-80488f49-8"/></g><g style="fill:#000;fill-opacity:1" id="g16416"><use id="use16418" width="100%" height="100%" x="245.212" y="134.765" xlink:href="#textext-80488f49-4"/></g><g style="fill:#000;fill-opacity:1" id="g16420"><use id="use16422" width="100%" height="100%" x="252.96" y="134.765" xlink:href="#textext-80488f49-6"/></g><g style="fill:#000;fill-opacity:1" id="g16424"><use id="use16426" width="100%" height="100%" x="258.689" y="134.765" xlink:href="#textext-80488f49-8"/></g><g style="fill:#000;fill-opacity:1" id="g16428"><use id="use16430" width="100%" height="100%" x="263.117" y="134.765" xlink:href="#textext-80488f49-4"/></g><g style="fill:#000;fill-opacity:1" id="g16432"><use id="use16434" width="100%" height="100%" x="270.865" y="134.765" xlink:href="#textext-80488f49-6"/></g><g style="fill:#000;fill-opacity:1" id="g16436"><use id="use16438" width="100%" height="100%" x="276.594" y="134.765" xlink:href="#textext-80488f49-2"/></g></g></g><g id="g17347" transform="matrix(1.402191,0,0,1.402191,152.14155,204.68443)" ns0:preamble="/home/tortue/Dropbox/projects/textex_preamble.tex" ns0:text="$\\mathbf{(1, -1, -1)}$"><defs id="defs17349"><g id="g17351"><symbol id="textext-2de8ef58-0" overflow="visible" style="overflow:visible"><path id="path17354" style="stroke:none"/></symbol><symbol id="textext-2de8ef58-1" overflow="visible" style="overflow:visible"><path id="path17357" d="m 3.296875,2.390625 c 0,-0.03125 0,-0.046875 -0.171875,-0.21875 C 1.890625,0.921875 1.5625,-0.96875 1.5625,-2.5 c 0,-1.734375 0.375,-3.46875 1.609375,-4.703125 0.125,-0.125 0.125,-0.140625 0.125,-0.171875 0,-0.078125 -0.03125,-0.109375 -0.09375,-0.109375 -0.109375,0 -1,0.6875 -1.59375,1.953125 -0.5,1.09375 -0.625,2.203125 -0.625,3.03125 0,0.78125 0.109375,1.984375 0.65625,3.125 C 2.25,1.84375 3.09375,2.5 3.203125,2.5 c 0.0625,0 0.09375,-0.03125 0.09375,-0.109375 z m 0,0" style="stroke:none"/></symbol><symbol id="textext-2de8ef58-2" overflow="visible" style="overflow:visible"><path id="path17360" d="m 2.875,-2.5 c 0,-0.765625 -0.109375,-1.96875 -0.65625,-3.109375 -0.59375,-1.21875 -1.453125,-1.875 -1.546875,-1.875 -0.0625,0 -0.109375,0.046875 -0.109375,0.109375 0,0.03125 0,0.046875 0.1875,0.234375 0.984375,0.984375 1.546875,2.5625 1.546875,4.640625 0,1.71875 -0.359375,3.46875 -1.59375,4.71875 C 0.5625,2.34375 0.5625,2.359375 0.5625,2.390625 0.5625,2.453125 0.609375,2.5 0.671875,2.5 0.765625,2.5 1.671875,1.8125 2.25,0.546875 2.765625,-0.546875 2.875,-1.65625 2.875,-2.5 Z m 0,0" style="stroke:none"/></symbol><symbol id="textext-2de8ef58-3" overflow="visible" style="overflow:visible"><path id="path17363" style="stroke:none"/></symbol><symbol id="textext-2de8ef58-4" overflow="visible" style="overflow:visible"><path id="path17366" d="m 3.53125,-6.203125 c 0,-0.234375 0,-0.328125 -0.265625,-0.328125 -0.109375,0 -0.125,0 -0.21875,0.078125 -0.765625,0.5625 -1.796875,0.5625 -2,0.5625 l -0.203125,0 0,0.46875 0.203125,0 C 1.203125,-5.421875 1.75,-5.4375 2.34375,-5.625 l 0,5.15625 -1.390625,0 0,0.46875 c 0.4375,-0.03125 1.5,-0.03125 1.984375,-0.03125 0.484375,0 1.546875,0 1.984375,0.03125 l 0,-0.46875 -1.390625,0 z m 0,0" style="stroke:none"/></symbol><symbol id="textext-2de8ef58-5" overflow="visible" style="overflow:visible"><path id="path17369" style="stroke:none"/></symbol><symbol id="textext-2de8ef58-6" overflow="visible" style="overflow:visible"><path id="path17372" d="m 2.03125,-0.015625 c 0,-0.65625 -0.25,-1.046875 -0.640625,-1.046875 -0.328125,0 -0.53125,0.25 -0.53125,0.53125 C 0.859375,-0.265625 1.0625,0 1.390625,0 1.5,0 1.640625,-0.046875 1.734375,-0.125 1.765625,-0.15625 1.78125,-0.15625 1.78125,-0.15625 c 0.015625,0 0.015625,0 0.015625,0.140625 0,0.75 -0.34375,1.34375 -0.671875,1.671875 -0.109375,0.109375 -0.109375,0.125 -0.109375,0.15625 0,0.078125 0.046875,0.109375 0.09375,0.109375 0.109375,0 0.921875,-0.765625 0.921875,-1.9375 z m 0,0" style="stroke:none"/></symbol><symbol id="textext-2de8ef58-7" overflow="visible" style="overflow:visible"><path id="path17375" style="stroke:none"/></symbol><symbol id="textext-2de8ef58-8" overflow="visible" style="overflow:visible"><path id="path17378" d="m 6.5625,-2.296875 c 0.171875,0 0.359375,0 0.359375,-0.203125 0,-0.1875 -0.1875,-0.1875 -0.359375,-0.1875 l -5.390625,0 c -0.171875,0 -0.34375,0 -0.34375,0.1875 0,0.203125 0.171875,0.203125 0.34375,0.203125 z m 0,0" style="stroke:none"/></symbol></g></defs><g id="textext-2de8ef58-9"><g id="g17381" style="fill:#000;fill-opacity:1"><use id="use17383" width="100%" height="100%" x="223.432" y="134.765" xlink:href="#textext-2de8ef58-1"/></g><g id="g17385" style="fill:#000;fill-opacity:1"><use id="use17387" width="100%" height="100%" x="227.306" y="134.765" xlink:href="#textext-2de8ef58-4"/></g><g id="g17389" style="fill:#000;fill-opacity:1"><use id="use17391" width="100%" height="100%" x="233.035" y="134.765" xlink:href="#textext-2de8ef58-6"/></g><g id="g17393" style="fill:#000;fill-opacity:1"><use id="use17395" width="100%" height="100%" x="237.463" y="134.765" xlink:href="#textext-2de8ef58-8"/></g><g id="g17397" style="fill:#000;fill-opacity:1"><use id="use17399" width="100%" height="100%" x="245.212" y="134.765" xlink:href="#textext-2de8ef58-4"/></g><g id="g17401" style="fill:#000;fill-opacity:1"><use id="use17403" width="100%" height="100%" x="250.94" y="134.765" xlink:href="#textext-2de8ef58-6"/></g><g id="g17405" style="fill:#000;fill-opacity:1"><use id="use17407" width="100%" height="100%" x="255.368" y="134.765" xlink:href="#textext-2de8ef58-8"/></g><g id="g17409" style="fill:#000;fill-opacity:1"><use id="use17411" width="100%" height="100%" x="263.117" y="134.765" xlink:href="#textext-2de8ef58-4"/></g><g id="g17413" style="fill:#000;fill-opacity:1"><use id="use17415" width="100%" height="100%" x="268.845" y="134.765" xlink:href="#textext-2de8ef58-2"/></g></g></g><g id="g18091" transform="matrix(1.402191,0,0,1.402191,220.53757,158.05057)" ns0:preamble="/home/tortue/Dropbox/projects/textex_preamble.tex" ns0:text="$\\mathbf{(1, -1, 1)}$"><defs id="defs18093"><g id="g18095"><symbol id="textext-a44955d0-0" overflow="visible" style="overflow:visible"><path style="stroke:none" id="path18098"/></symbol><symbol id="textext-a44955d0-1" overflow="visible" style="overflow:visible"><path style="stroke:none" id="path18101" d="m 3.296875,2.390625 c 0,-0.03125 0,-0.046875 -0.171875,-0.21875 C 1.890625,0.921875 1.5625,-0.96875 1.5625,-2.5 c 0,-1.734375 0.375,-3.46875 1.609375,-4.703125 0.125,-0.125 0.125,-0.140625 0.125,-0.171875 0,-0.078125 -0.03125,-0.109375 -0.09375,-0.109375 -0.109375,0 -1,0.6875 -1.59375,1.953125 -0.5,1.09375 -0.625,2.203125 -0.625,3.03125 0,0.78125 0.109375,1.984375 0.65625,3.125 C 2.25,1.84375 3.09375,2.5 3.203125,2.5 c 0.0625,0 0.09375,-0.03125 0.09375,-0.109375 z m 0,0"/></symbol><symbol id="textext-a44955d0-2" overflow="visible" style="overflow:visible"><path style="stroke:none" id="path18104" d="m 2.875,-2.5 c 0,-0.765625 -0.109375,-1.96875 -0.65625,-3.109375 -0.59375,-1.21875 -1.453125,-1.875 -1.546875,-1.875 -0.0625,0 -0.109375,0.046875 -0.109375,0.109375 0,0.03125 0,0.046875 0.1875,0.234375 0.984375,0.984375 1.546875,2.5625 1.546875,4.640625 0,1.71875 -0.359375,3.46875 -1.59375,4.71875 C 0.5625,2.34375 0.5625,2.359375 0.5625,2.390625 0.5625,2.453125 0.609375,2.5 0.671875,2.5 0.765625,2.5 1.671875,1.8125 2.25,0.546875 2.765625,-0.546875 2.875,-1.65625 2.875,-2.5 Z m 0,0"/></symbol><symbol id="textext-a44955d0-3" overflow="visible" style="overflow:visible"><path style="stroke:none" id="path18107"/></symbol><symbol id="textext-a44955d0-4" overflow="visible" style="overflow:visible"><path style="stroke:none" id="path18110" d="m 3.53125,-6.203125 c 0,-0.234375 0,-0.328125 -0.265625,-0.328125 -0.109375,0 -0.125,0 -0.21875,0.078125 -0.765625,0.5625 -1.796875,0.5625 -2,0.5625 l -0.203125,0 0,0.46875 0.203125,0 C 1.203125,-5.421875 1.75,-5.4375 2.34375,-5.625 l 0,5.15625 -1.390625,0 0,0.46875 c 0.4375,-0.03125 1.5,-0.03125 1.984375,-0.03125 0.484375,0 1.546875,0 1.984375,0.03125 l 0,-0.46875 -1.390625,0 z m 0,0"/></symbol><symbol id="textext-a44955d0-5" overflow="visible" style="overflow:visible"><path style="stroke:none" id="path18113"/></symbol><symbol id="textext-a44955d0-6" overflow="visible" style="overflow:visible"><path style="stroke:none" id="path18116" d="m 2.03125,-0.015625 c 0,-0.65625 -0.25,-1.046875 -0.640625,-1.046875 -0.328125,0 -0.53125,0.25 -0.53125,0.53125 C 0.859375,-0.265625 1.0625,0 1.390625,0 1.5,0 1.640625,-0.046875 1.734375,-0.125 1.765625,-0.15625 1.78125,-0.15625 1.78125,-0.15625 c 0.015625,0 0.015625,0 0.015625,0.140625 0,0.75 -0.34375,1.34375 -0.671875,1.671875 -0.109375,0.109375 -0.109375,0.125 -0.109375,0.15625 0,0.078125 0.046875,0.109375 0.09375,0.109375 0.109375,0 0.921875,-0.765625 0.921875,-1.9375 z m 0,0"/></symbol><symbol id="textext-a44955d0-7" overflow="visible" style="overflow:visible"><path style="stroke:none" id="path18119"/></symbol><symbol id="textext-a44955d0-8" overflow="visible" style="overflow:visible"><path style="stroke:none" id="path18122" d="m 6.5625,-2.296875 c 0.171875,0 0.359375,0 0.359375,-0.203125 0,-0.1875 -0.1875,-0.1875 -0.359375,-0.1875 l -5.390625,0 c -0.171875,0 -0.34375,0 -0.34375,0.1875 0,0.203125 0.171875,0.203125 0.34375,0.203125 z m 0,0"/></symbol></g></defs><g id="textext-a44955d0-9"><g style="fill:#000;fill-opacity:1" id="g18125"><use id="use18127" width="100%" height="100%" x="223.432" y="134.765" xlink:href="#textext-a44955d0-1"/></g><g style="fill:#000;fill-opacity:1" id="g18129"><use id="use18131" width="100%" height="100%" x="227.306" y="134.765" xlink:href="#textext-a44955d0-4"/></g><g style="fill:#000;fill-opacity:1" id="g18133"><use id="use18135" width="100%" height="100%" x="233.035" y="134.765" xlink:href="#textext-a44955d0-6"/></g><g style="fill:#000;fill-opacity:1" id="g18137"><use id="use18139" width="100%" height="100%" x="237.463" y="134.765" xlink:href="#textext-a44955d0-8"/></g><g style="fill:#000;fill-opacity:1" id="g18141"><use id="use18143" width="100%" height="100%" x="245.212" y="134.765" xlink:href="#textext-a44955d0-4"/></g><g style="fill:#000;fill-opacity:1" id="g18145"><use id="use18147" width="100%" height="100%" x="250.94" y="134.765" xlink:href="#textext-a44955d0-6"/></g><g style="fill:#000;fill-opacity:1" id="g18149"><use id="use18151" width="100%" height="100%" x="255.368" y="134.765" xlink:href="#textext-a44955d0-4"/></g><g style="fill:#000;fill-opacity:1" id="g18153"><use id="use18155" width="100%" height="100%" x="261.096" y="134.765" xlink:href="#textext-a44955d0-2"/></g></g></g><g id="g18823" transform="matrix(1.402191,0,0,1.402191,225.96966,67.634666)" ns0:preamble="/home/tortue/Dropbox/projects/textex_preamble.tex" ns0:text="$\\mathbf{(1, 1, 1)}$"><defs id="defs18825"><g id="g18827"><symbol id="textext-f218aabc-0" overflow="visible" style="overflow:visible"><path id="path18830" style="stroke:none"/></symbol><symbol id="textext-f218aabc-1" overflow="visible" style="overflow:visible"><path id="path18833" d="m 3.296875,2.390625 c 0,-0.03125 0,-0.046875 -0.171875,-0.21875 C 1.890625,0.921875 1.5625,-0.96875 1.5625,-2.5 c 0,-1.734375 0.375,-3.46875 1.609375,-4.703125 0.125,-0.125 0.125,-0.140625 0.125,-0.171875 0,-0.078125 -0.03125,-0.109375 -0.09375,-0.109375 -0.109375,0 -1,0.6875 -1.59375,1.953125 -0.5,1.09375 -0.625,2.203125 -0.625,3.03125 0,0.78125 0.109375,1.984375 0.65625,3.125 C 2.25,1.84375 3.09375,2.5 3.203125,2.5 c 0.0625,0 0.09375,-0.03125 0.09375,-0.109375 z m 0,0" style="stroke:none"/></symbol><symbol id="textext-f218aabc-2" overflow="visible" style="overflow:visible"><path id="path18836" d="m 2.875,-2.5 c 0,-0.765625 -0.109375,-1.96875 -0.65625,-3.109375 -0.59375,-1.21875 -1.453125,-1.875 -1.546875,-1.875 -0.0625,0 -0.109375,0.046875 -0.109375,0.109375 0,0.03125 0,0.046875 0.1875,0.234375 0.984375,0.984375 1.546875,2.5625 1.546875,4.640625 0,1.71875 -0.359375,3.46875 -1.59375,4.71875 C 0.5625,2.34375 0.5625,2.359375 0.5625,2.390625 0.5625,2.453125 0.609375,2.5 0.671875,2.5 0.765625,2.5 1.671875,1.8125 2.25,0.546875 2.765625,-0.546875 2.875,-1.65625 2.875,-2.5 Z m 0,0" style="stroke:none"/></symbol><symbol id="textext-f218aabc-3" overflow="visible" style="overflow:visible"><path id="path18839" style="stroke:none"/></symbol><symbol id="textext-f218aabc-4" overflow="visible" style="overflow:visible"><path id="path18842" d="m 3.53125,-6.203125 c 0,-0.234375 0,-0.328125 -0.265625,-0.328125 -0.109375,0 -0.125,0 -0.21875,0.078125 -0.765625,0.5625 -1.796875,0.5625 -2,0.5625 l -0.203125,0 0,0.46875 0.203125,0 C 1.203125,-5.421875 1.75,-5.4375 2.34375,-5.625 l 0,5.15625 -1.390625,0 0,0.46875 c 0.4375,-0.03125 1.5,-0.03125 1.984375,-0.03125 0.484375,0 1.546875,0 1.984375,0.03125 l 0,-0.46875 -1.390625,0 z m 0,0" style="stroke:none"/></symbol><symbol id="textext-f218aabc-5" overflow="visible" style="overflow:visible"><path id="path18845" style="stroke:none"/></symbol><symbol id="textext-f218aabc-6" overflow="visible" style="overflow:visible"><path id="path18848" d="m 2.03125,-0.015625 c 0,-0.65625 -0.25,-1.046875 -0.640625,-1.046875 -0.328125,0 -0.53125,0.25 -0.53125,0.53125 C 0.859375,-0.265625 1.0625,0 1.390625,0 1.5,0 1.640625,-0.046875 1.734375,-0.125 1.765625,-0.15625 1.78125,-0.15625 1.78125,-0.15625 c 0.015625,0 0.015625,0 0.015625,0.140625 0,0.75 -0.34375,1.34375 -0.671875,1.671875 -0.109375,0.109375 -0.109375,0.125 -0.109375,0.15625 0,0.078125 0.046875,0.109375 0.09375,0.109375 0.109375,0 0.921875,-0.765625 0.921875,-1.9375 z m 0,0" style="stroke:none"/></symbol></g></defs><g id="textext-f218aabc-7"><g id="g18851" style="fill:#000;fill-opacity:1"><use id="use18853" width="100%" height="100%" x="223.432" y="134.765" xlink:href="#textext-f218aabc-1"/></g><g id="g18855" style="fill:#000;fill-opacity:1"><use id="use18857" width="100%" height="100%" x="227.306" y="134.765" xlink:href="#textext-f218aabc-4"/></g><g id="g18859" style="fill:#000;fill-opacity:1"><use id="use18861" width="100%" height="100%" x="233.035" y="134.765" xlink:href="#textext-f218aabc-6"/></g><g id="g18863" style="fill:#000;fill-opacity:1"><use id="use18865" width="100%" height="100%" x="237.463" y="134.765" xlink:href="#textext-f218aabc-4"/></g><g id="g18867" style="fill:#000;fill-opacity:1"><use id="use18869" width="100%" height="100%" x="243.191" y="134.765" xlink:href="#textext-f218aabc-6"/></g><g id="g18871" style="fill:#000;fill-opacity:1"><use id="use18873" width="100%" height="100%" x="247.619" y="134.765" xlink:href="#textext-f218aabc-4"/></g><g id="g18875" style="fill:#000;fill-opacity:1"><use id="use18877" width="100%" height="100%" x="253.348" y="134.765" xlink:href="#textext-f218aabc-2"/></g></g></g><g id="g19525" transform="matrix(1.402191,0,0,1.402191,100.10324,67.634665)" ns0:preamble="/home/tortue/Dropbox/projects/textex_preamble.tex" ns0:text="$\\mathbf{(-1, 1, 1)}$"><defs id="defs19527"><g id="g19529"><symbol id="textext-bbda6843-0" overflow="visible" style="overflow:visible"><path style="stroke:none" id="path19532"/></symbol><symbol id="textext-bbda6843-1" overflow="visible" style="overflow:visible"><path style="stroke:none" id="path19535" d="m 3.296875,2.390625 c 0,-0.03125 0,-0.046875 -0.171875,-0.21875 C 1.890625,0.921875 1.5625,-0.96875 1.5625,-2.5 c 0,-1.734375 0.375,-3.46875 1.609375,-4.703125 0.125,-0.125 0.125,-0.140625 0.125,-0.171875 0,-0.078125 -0.03125,-0.109375 -0.09375,-0.109375 -0.109375,0 -1,0.6875 -1.59375,1.953125 -0.5,1.09375 -0.625,2.203125 -0.625,3.03125 0,0.78125 0.109375,1.984375 0.65625,3.125 C 2.25,1.84375 3.09375,2.5 3.203125,2.5 c 0.0625,0 0.09375,-0.03125 0.09375,-0.109375 z m 0,0"/></symbol><symbol id="textext-bbda6843-2" overflow="visible" style="overflow:visible"><path style="stroke:none" id="path19538" d="m 2.875,-2.5 c 0,-0.765625 -0.109375,-1.96875 -0.65625,-3.109375 -0.59375,-1.21875 -1.453125,-1.875 -1.546875,-1.875 -0.0625,0 -0.109375,0.046875 -0.109375,0.109375 0,0.03125 0,0.046875 0.1875,0.234375 0.984375,0.984375 1.546875,2.5625 1.546875,4.640625 0,1.71875 -0.359375,3.46875 -1.59375,4.71875 C 0.5625,2.34375 0.5625,2.359375 0.5625,2.390625 0.5625,2.453125 0.609375,2.5 0.671875,2.5 0.765625,2.5 1.671875,1.8125 2.25,0.546875 2.765625,-0.546875 2.875,-1.65625 2.875,-2.5 Z m 0,0"/></symbol><symbol id="textext-bbda6843-3" overflow="visible" style="overflow:visible"><path style="stroke:none" id="path19541"/></symbol><symbol id="textext-bbda6843-4" overflow="visible" style="overflow:visible"><path style="stroke:none" id="path19544" d="m 6.5625,-2.296875 c 0.171875,0 0.359375,0 0.359375,-0.203125 0,-0.1875 -0.1875,-0.1875 -0.359375,-0.1875 l -5.390625,0 c -0.171875,0 -0.34375,0 -0.34375,0.1875 0,0.203125 0.171875,0.203125 0.34375,0.203125 z m 0,0"/></symbol><symbol id="textext-bbda6843-5" overflow="visible" style="overflow:visible"><path style="stroke:none" id="path19547"/></symbol><symbol id="textext-bbda6843-6" overflow="visible" style="overflow:visible"><path style="stroke:none" id="path19550" d="m 3.53125,-6.203125 c 0,-0.234375 0,-0.328125 -0.265625,-0.328125 -0.109375,0 -0.125,0 -0.21875,0.078125 -0.765625,0.5625 -1.796875,0.5625 -2,0.5625 l -0.203125,0 0,0.46875 0.203125,0 C 1.203125,-5.421875 1.75,-5.4375 2.34375,-5.625 l 0,5.15625 -1.390625,0 0,0.46875 c 0.4375,-0.03125 1.5,-0.03125 1.984375,-0.03125 0.484375,0 1.546875,0 1.984375,0.03125 l 0,-0.46875 -1.390625,0 z m 0,0"/></symbol><symbol id="textext-bbda6843-7" overflow="visible" style="overflow:visible"><path style="stroke:none" id="path19553"/></symbol><symbol id="textext-bbda6843-8" overflow="visible" style="overflow:visible"><path style="stroke:none" id="path19556" d="m 2.03125,-0.015625 c 0,-0.65625 -0.25,-1.046875 -0.640625,-1.046875 -0.328125,0 -0.53125,0.25 -0.53125,0.53125 C 0.859375,-0.265625 1.0625,0 1.390625,0 1.5,0 1.640625,-0.046875 1.734375,-0.125 1.765625,-0.15625 1.78125,-0.15625 1.78125,-0.15625 c 0.015625,0 0.015625,0 0.015625,0.140625 0,0.75 -0.34375,1.34375 -0.671875,1.671875 -0.109375,0.109375 -0.109375,0.125 -0.109375,0.15625 0,0.078125 0.046875,0.109375 0.09375,0.109375 0.109375,0 0.921875,-0.765625 0.921875,-1.9375 z m 0,0"/></symbol></g></defs><g id="textext-bbda6843-9"><g style="fill:#000;fill-opacity:1" id="g19559"><use id="use19561" width="100%" height="100%" x="223.432" y="134.765" xlink:href="#textext-bbda6843-1"/></g><g style="fill:#000;fill-opacity:1" id="g19563"><use id="use19565" width="100%" height="100%" x="227.306" y="134.765" xlink:href="#textext-bbda6843-4"/></g><g style="fill:#000;fill-opacity:1" id="g19567"><use id="use19569" width="100%" height="100%" x="235.055" y="134.765" xlink:href="#textext-bbda6843-6"/></g><g style="fill:#000;fill-opacity:1" id="g19571"><use id="use19573" width="100%" height="100%" x="240.784" y="134.765" xlink:href="#textext-bbda6843-8"/></g><g style="fill:#000;fill-opacity:1" id="g19575"><use id="use19577" width="100%" height="100%" x="245.212" y="134.765" xlink:href="#textext-bbda6843-6"/></g><g style="fill:#000;fill-opacity:1" id="g19579"><use id="use19581" width="100%" height="100%" x="250.94" y="134.765" xlink:href="#textext-bbda6843-8"/></g><g style="fill:#000;fill-opacity:1" id="g19583"><use id="use19585" width="100%" height="100%" x="255.368" y="134.765" xlink:href="#textext-bbda6843-6"/></g><g style="fill:#000;fill-opacity:1" id="g19587"><use id="use19589" width="100%" height="100%" x="261.096" y="134.765" xlink:href="#textext-bbda6843-2"/></g></g></g><g id="g20229" transform="matrix(1.402191,0,0,1.402191,36.52672,103.07043)" ns0:preamble="/home/tortue/Dropbox/projects/textex_preamble.tex" ns0:text="$\\mathbf{(-1, 1, -1)}$"><defs id="defs20231"><g id="g20233"><symbol id="textext-b772e6cf-0" overflow="visible" style="overflow:visible"><path id="path20236" style="stroke:none"/></symbol><symbol id="textext-b772e6cf-1" overflow="visible" style="overflow:visible"><path id="path20239" d="m 3.296875,2.390625 c 0,-0.03125 0,-0.046875 -0.171875,-0.21875 C 1.890625,0.921875 1.5625,-0.96875 1.5625,-2.5 c 0,-1.734375 0.375,-3.46875 1.609375,-4.703125 0.125,-0.125 0.125,-0.140625 0.125,-0.171875 0,-0.078125 -0.03125,-0.109375 -0.09375,-0.109375 -0.109375,0 -1,0.6875 -1.59375,1.953125 -0.5,1.09375 -0.625,2.203125 -0.625,3.03125 0,0.78125 0.109375,1.984375 0.65625,3.125 C 2.25,1.84375 3.09375,2.5 3.203125,2.5 c 0.0625,0 0.09375,-0.03125 0.09375,-0.109375 z m 0,0" style="stroke:none"/></symbol><symbol id="textext-b772e6cf-2" overflow="visible" style="overflow:visible"><path id="path20242" d="m 2.875,-2.5 c 0,-0.765625 -0.109375,-1.96875 -0.65625,-3.109375 -0.59375,-1.21875 -1.453125,-1.875 -1.546875,-1.875 -0.0625,0 -0.109375,0.046875 -0.109375,0.109375 0,0.03125 0,0.046875 0.1875,0.234375 0.984375,0.984375 1.546875,2.5625 1.546875,4.640625 0,1.71875 -0.359375,3.46875 -1.59375,4.71875 C 0.5625,2.34375 0.5625,2.359375 0.5625,2.390625 0.5625,2.453125 0.609375,2.5 0.671875,2.5 0.765625,2.5 1.671875,1.8125 2.25,0.546875 2.765625,-0.546875 2.875,-1.65625 2.875,-2.5 Z m 0,0" style="stroke:none"/></symbol><symbol id="textext-b772e6cf-3" overflow="visible" style="overflow:visible"><path id="path20245" style="stroke:none"/></symbol><symbol id="textext-b772e6cf-4" overflow="visible" style="overflow:visible"><path id="path20248" d="m 6.5625,-2.296875 c 0.171875,0 0.359375,0 0.359375,-0.203125 0,-0.1875 -0.1875,-0.1875 -0.359375,-0.1875 l -5.390625,0 c -0.171875,0 -0.34375,0 -0.34375,0.1875 0,0.203125 0.171875,0.203125 0.34375,0.203125 z m 0,0" style="stroke:none"/></symbol><symbol id="textext-b772e6cf-5" overflow="visible" style="overflow:visible"><path id="path20251" style="stroke:none"/></symbol><symbol id="textext-b772e6cf-6" overflow="visible" style="overflow:visible"><path id="path20254" d="m 3.53125,-6.203125 c 0,-0.234375 0,-0.328125 -0.265625,-0.328125 -0.109375,0 -0.125,0 -0.21875,0.078125 -0.765625,0.5625 -1.796875,0.5625 -2,0.5625 l -0.203125,0 0,0.46875 0.203125,0 C 1.203125,-5.421875 1.75,-5.4375 2.34375,-5.625 l 0,5.15625 -1.390625,0 0,0.46875 c 0.4375,-0.03125 1.5,-0.03125 1.984375,-0.03125 0.484375,0 1.546875,0 1.984375,0.03125 l 0,-0.46875 -1.390625,0 z m 0,0" style="stroke:none"/></symbol><symbol id="textext-b772e6cf-7" overflow="visible" style="overflow:visible"><path id="path20257" style="stroke:none"/></symbol><symbol id="textext-b772e6cf-8" overflow="visible" style="overflow:visible"><path id="path20260" d="m 2.03125,-0.015625 c 0,-0.65625 -0.25,-1.046875 -0.640625,-1.046875 -0.328125,0 -0.53125,0.25 -0.53125,0.53125 C 0.859375,-0.265625 1.0625,0 1.390625,0 1.5,0 1.640625,-0.046875 1.734375,-0.125 1.765625,-0.15625 1.78125,-0.15625 1.78125,-0.15625 c 0.015625,0 0.015625,0 0.015625,0.140625 0,0.75 -0.34375,1.34375 -0.671875,1.671875 -0.109375,0.109375 -0.109375,0.125 -0.109375,0.15625 0,0.078125 0.046875,0.109375 0.09375,0.109375 0.109375,0 0.921875,-0.765625 0.921875,-1.9375 z m 0,0" style="stroke:none"/></symbol></g></defs><g id="textext-b772e6cf-9"><g id="g20263" style="fill:#000;fill-opacity:1"><use id="use20265" width="100%" height="100%" x="223.432" y="134.765" xlink:href="#textext-b772e6cf-1"/></g><g id="g20267" style="fill:#000;fill-opacity:1"><use id="use20269" width="100%" height="100%" x="227.306" y="134.765" xlink:href="#textext-b772e6cf-4"/></g><g id="g20271" style="fill:#000;fill-opacity:1"><use id="use20273" width="100%" height="100%" x="235.055" y="134.765" xlink:href="#textext-b772e6cf-6"/></g><g id="g20275" style="fill:#000;fill-opacity:1"><use id="use20277" width="100%" height="100%" x="240.784" y="134.765" xlink:href="#textext-b772e6cf-8"/></g><g id="g20279" style="fill:#000;fill-opacity:1"><use id="use20281" width="100%" height="100%" x="245.212" y="134.765" xlink:href="#textext-b772e6cf-6"/></g><g id="g20283" style="fill:#000;fill-opacity:1"><use id="use20285" width="100%" height="100%" x="250.94" y="134.765" xlink:href="#textext-b772e6cf-8"/></g><g id="g20287" style="fill:#000;fill-opacity:1"><use id="use20289" width="100%" height="100%" x="255.368" y="134.765" xlink:href="#textext-b772e6cf-4"/></g><g id="g20291" style="fill:#000;fill-opacity:1"><use id="use20293" width="100%" height="100%" x="263.117" y="134.765" xlink:href="#textext-b772e6cf-6"/></g><g id="g20295" style="fill:#000;fill-opacity:1"><use id="use20297" width="100%" height="100%" x="268.845" y="134.765" xlink:href="#textext-b772e6cf-2"/></g></g></g><path style="fill:none;fill-rule:evenodd;stroke:#000;stroke-width:1.2446717px;stroke-linecap:butt;stroke-linejoin:miter;stroke-opacity:1;marker-end:url(#Arrow2Mend)" id="path20644" d="m 271.56238,325.88327 80.90365,0"/><text style="font-style:normal;font-weight:400;font-size:49.78686523px;line-height:125%;font-family:Sans;letter-spacing:0;word-spacing:0;fill:#000;fill-opacity:1;stroke:none;stroke-width:1px;stroke-linecap:butt;stroke-linejoin:miter;stroke-opacity:1" id="text20658" x="268.419" y="320.415" xml:space="preserve"><tspan id="tspan20660" x="268.419" y="320.415" style="font-size:14.00255585px">Perspective3</tspan></text><circle style="opacity:1;fill:#ffc8aa;fill-opacity:1;fill-rule:nonzero;stroke:#000;stroke-width:1.16666675;stroke-linecap:round;stroke-linejoin:round;stroke-miterlimit:4;stroke-dasharray:none;stroke-dashoffset:0;stroke-opacity:1" id="path22083" cx="44.659" cy="326.336" r="2.917"/><circle id="circle22226" cx="116.343" cy="336.816" r="2.917" style="opacity:1;fill:#ffc8aa;fill-opacity:1;fill-rule:nonzero;stroke:#000;stroke-width:1.16666675;stroke-linecap:round;stroke-linejoin:round;stroke-miterlimit:4;stroke-dasharray:none;stroke-dashoffset:0;stroke-opacity:1"/><circle id="circle22228" cx="44.659" cy="367.499" r="2.917" style="opacity:1;fill:#ffc8aa;fill-opacity:1;fill-rule:nonzero;stroke:#000;stroke-width:1.16666675;stroke-linecap:round;stroke-linejoin:round;stroke-miterlimit:4;stroke-dasharray:none;stroke-dashoffset:0;stroke-opacity:1"/><circle style="opacity:1;fill:#ffc8aa;fill-opacity:1;fill-rule:nonzero;stroke:#000;stroke-width:1.16666663;stroke-linecap:round;stroke-linejoin:round;stroke-miterlimit:4;stroke-dasharray:none;stroke-dashoffset:0;stroke-opacity:1" id="circle22230" cx="116.343" cy="377.98" r="2.917"/><circle id="circle22232" cx="411.865" cy="304.297" r="2.917" style="opacity:1;fill:#ffc8aa;fill-opacity:1;fill-rule:nonzero;stroke:#000;stroke-width:1.16666663;stroke-linecap:round;stroke-linejoin:round;stroke-miterlimit:4;stroke-dasharray:none;stroke-dashoffset:0;stroke-opacity:1"/><circle style="opacity:1;fill:#ffc8aa;fill-opacity:1;fill-rule:nonzero;stroke:#000;stroke-width:1.16666663;stroke-linecap:round;stroke-linejoin:round;stroke-miterlimit:4;stroke-dasharray:none;stroke-dashoffset:0;stroke-opacity:1" id="circle22234" cx="483.437" cy="304.097" r="2.917"/><circle style="opacity:1;fill:#ffc8aa;fill-opacity:1;fill-rule:nonzero;stroke:#000;stroke-width:1.16666663;stroke-linecap:round;stroke-linejoin:round;stroke-miterlimit:4;stroke-dasharray:none;stroke-dashoffset:0;stroke-opacity:1" id="circle22236" cx="411.865" cy="376.018" r="2.917"/><circle id="circle22238" cx="483.437" cy="376.218" r="2.917" style="opacity:1;fill:#ffc8aa;fill-opacity:1;fill-rule:nonzero;stroke:#000;stroke-width:1.16666663;stroke-linecap:round;stroke-linejoin:round;stroke-miterlimit:4;stroke-dasharray:none;stroke-dashoffset:0;stroke-opacity:1"/><circle style="opacity:1;fill:#d2504b;fill-opacity:1;fill-rule:nonzero;stroke:#000;stroke-width:1.16666663;stroke-linecap:round;stroke-linejoin:round;stroke-miterlimit:4;stroke-dasharray:none;stroke-dashoffset:0;stroke-opacity:1" id="circle22264" cx="457.514" cy="264.901" r="2.917"/><circle id="circle22266" cx="529.8" cy="264.901" r="2.917" style="opacity:1;fill:#d2504b;fill-opacity:1;fill-rule:nonzero;stroke:#000;stroke-width:1.16666663;stroke-linecap:round;stroke-linejoin:round;stroke-miterlimit:4;stroke-dasharray:none;stroke-dashoffset:0;stroke-opacity:1"/><circle style="opacity:1;fill:#d2504b;fill-opacity:1;fill-rule:nonzero;stroke:#000;stroke-width:1.16666663;stroke-linecap:round;stroke-linejoin:round;stroke-miterlimit:4;stroke-dasharray:none;stroke-dashoffset:0;stroke-opacity:1" id="circle22270" cx="529.8" cy="336.326" r="2.917"/><circle style="opacity:1;fill:#d2504b;fill-opacity:1;fill-rule:nonzero;stroke:#000;stroke-width:1.16666675;stroke-linecap:round;stroke-linejoin:round;stroke-miterlimit:4;stroke-dasharray:none;stroke-dashoffset:0;stroke-opacity:1" id="circle22264-2" cx="107.979" cy="224.927" r="2.917"/><circle id="circle22266-7" cx="242.013" cy="245.134" r="2.917" style="opacity:1;fill:#d2504b;fill-opacity:1;fill-rule:nonzero;stroke:#000;stroke-width:1.16666675;stroke-linecap:round;stroke-linejoin:round;stroke-miterlimit:4;stroke-dasharray:none;stroke-dashoffset:0;stroke-opacity:1"/><circle style="opacity:1;fill:#d2504b;fill-opacity:1;fill-rule:nonzero;stroke:#000;stroke-width:1.16666675;stroke-linecap:round;stroke-linejoin:round;stroke-miterlimit:4;stroke-dasharray:none;stroke-dashoffset:0;stroke-opacity:1" id="circle22270-9" cx="242.013" cy="326.646" r="2.917"/></g></svg>